<svg xmlns="http://www.w3.org/2000/svg" xmlns:xlink="http://www.w3.org/1999/xlink" viewBox="6 5 357 141" width="506.3829787234043" height="200"><path d="M 62.000,47.000 C 62.202,50.459 63.000,49.500 64.000,52.000" stroke-width="5.381" stroke="black" fill="none" stroke-linecap="round"></path><path d="M 64.000,52.000 C 66.640,53.545 65.702,53.459 69.000,53.000" stroke-width="5.170" stroke="black" fill="none" stroke-linecap="round"></path><path d="M 69.000,53.000 C 73.000,51.000 73.140,52.045 77.000,49.000" stroke-width="4.625" stroke="black" fill="none" stroke-linecap="round"></path><path d="M 77.000,49.000 C 82.949,45.894 83.000,46.000 89.000,43.000" stroke-width="3.545" stroke="black" fill="none" stroke-linecap="round"></path><path d="M 89.000,43.000 C 94.340,40.058 94.449,40.394 100.000,38.000" stroke-width="3.300" stroke="black" fill="none" stroke-linecap="round"></path><path d="M 100.000,38.000 C 105.604,36.799 105.340,36.058 111.000,35.000" stroke-width="3.289" stroke="black" fill="none" stroke-linecap="round"></path><path d="M 74.000,31.000 C 78.407,33.966 77.500,34.500 81.000,38.000" stroke-width="5.250" stroke="black" fill="none" stroke-linecap="round"></path><path d="M 81.000,38.000 C 82.000,41.500 82.907,40.966 83.000,45.000" stroke-width="4.784" stroke="black" fill="none" stroke-linecap="round"></path><path d="M 83.000,45.000 C 83.576,52.000 84.000,48.500 85.000,52.000" stroke-width="4.102" stroke="black" fill="none" stroke-linecap="round"></path><path d="M 85.000,52.000 C 87.123,48.566 86.576,52.000 89.000,45.000" stroke-width="4.849" stroke="black" fill="none" stroke-linecap="round"></path><path d="M 89.000,45.000 C 91.649,38.789 92.123,39.066 95.000,33.000" stroke-width="3.440" stroke="black" fill="none" stroke-linecap="round"></path><path d="M 95.000,33.000 C 97.345,29.379 97.149,29.289 100.000,26.000" stroke-width="3.590" stroke="black" fill="none" stroke-linecap="round"></path><path d="M 100.000,26.000 C 103.475,19.631 102.845,22.379 106.000,19.000" stroke-width="4.153" stroke="black" fill="none" stroke-linecap="round"></path><path d="M 106.000,19.000 C 107.508,21.378 107.475,18.631 108.000,24.000" stroke-width="4.886" stroke="black" fill="none" stroke-linecap="round"></path><path d="M 108.000,24.000 C 109.000,29.502 109.008,29.378 109.000,35.000" stroke-width="3.680" stroke="black" fill="none" stroke-linecap="round"></path><path d="M 109.000,35.000 C 108.710,40.030 109.000,40.002 108.000,45.000" stroke-width="3.630" stroke="black" fill="none" stroke-linecap="round"></path><path d="M 119.000,46.000 C 116.870,49.013 116.500,48.500 114.000,51.000" stroke-width="5.528" stroke="black" fill="none" stroke-linecap="round"></path><path d="M 114.000,51.000 C 109.944,52.896 110.370,53.513 106.000,55.000" stroke-width="4.095" stroke="black" fill="none" stroke-linecap="round"></path><path d="M 106.000,55.000 C 102.634,57.269 102.444,56.896 99.000,59.000" stroke-width="3.840" stroke="black" fill="none" stroke-linecap="round"></path><path d="M 99.000,59.000 C 92.104,62.294 92.134,62.269 85.000,65.000" stroke-width="3.184" stroke="black" fill="none" stroke-linecap="round"></path><path d="M 85.000,65.000 C 81.478,65.930 81.604,66.294 78.000,67.000" stroke-width="3.677" stroke="black" fill="none" stroke-linecap="round"></path><path d="M 78.000,67.000 C 75.038,68.132 74.978,67.930 72.000,69.000" stroke-width="3.963" stroke="black" fill="none" stroke-linecap="round"></path><path d="M 11.000,93.000 C 13.515,93.964 13.500,94.000 16.000,95.000" stroke-width="5.048" stroke="black" fill="none" stroke-linecap="round"></path><path d="M 16.000,95.000 C 19.381,97.774 19.515,96.464 23.000,98.000" stroke-width="4.740" stroke="black" fill="none" stroke-linecap="round"></path><path d="M 23.000,98.000 C 27.659,97.447 27.381,98.274 32.000,96.000" stroke-width="4.888" stroke="black" fill="none" stroke-linecap="round"></path><path d="M 32.000,96.000 C 34.937,94.362 35.159,94.947 38.000,93.000" stroke-width="4.257" stroke="black" fill="none" stroke-linecap="round"></path><path d="M 38.000,93.000 C 43.949,90.368 43.937,90.362 50.000,88.000" stroke-width="3.511" stroke="black" fill="none" stroke-linecap="round"></path><path d="M 50.000,88.000 C 55.500,86.000 55.449,85.868 61.000,84.000" stroke-width="3.323" stroke="black" fill="none" stroke-linecap="round"></path><path d="M 61.000,84.000 C 72.017,80.046 72.000,80.000 83.000,76.000" stroke-width="2.520" stroke="black" fill="none" stroke-linecap="round"></path><path d="M 83.000,76.000 C 90.923,72.776 91.017,73.046 99.000,70.000" stroke-width="2.713" stroke="black" fill="none" stroke-linecap="round"></path><path d="M 99.000,70.000 C 106.935,67.275 106.923,67.276 115.000,65.000" stroke-width="2.737" stroke="black" fill="none" stroke-linecap="round"></path><path d="M 115.000,65.000 C 126.517,62.062 126.435,61.775 138.000,59.000" stroke-width="2.387" stroke="black" fill="none" stroke-linecap="round"></path><path d="M 138.000,59.000 C 146.059,56.823 141.517,58.062 145.000,57.000" stroke-width="3.260" stroke="black" fill="none" stroke-linecap="round"></path><path d="M 145.000,57.000 C 138.518,58.583 143.059,57.323 132.000,60.000" stroke-width="4.398" stroke="black" fill="none" stroke-linecap="round"></path><path d="M 132.000,60.000 C 126.917,60.676 127.018,61.083 122.000,62.000" stroke-width="3.741" stroke="black" fill="none" stroke-linecap="round"></path><path d="M 122.000,62.000 C 113.949,64.350 113.917,64.176 106.000,67.000" stroke-width="2.985" stroke="black" fill="none" stroke-linecap="round"></path><path d="M 106.000,67.000 C 100.358,68.670 100.449,68.850 95.000,71.000" stroke-width="3.269" stroke="black" fill="none" stroke-linecap="round"></path><path d="M 95.000,71.000 C 88.925,73.863 88.858,73.670 83.000,77.000" stroke-width="3.180" stroke="black" fill="none" stroke-linecap="round"></path><path d="M 83.000,77.000 C 78.158,77.634 80.425,78.363 78.000,80.000" stroke-width="3.786" stroke="black" fill="none" stroke-linecap="round"></path><path d="M 78.000,80.000 C 80.096,85.970 77.658,85.134 82.000,92.000" stroke-width="4.513" stroke="black" fill="none" stroke-linecap="round"></path><path d="M 82.000,92.000 C 82.850,99.767 83.096,95.470 84.000,99.000" stroke-width="4.596" stroke="black" fill="none" stroke-linecap="round"></path><path d="M 84.000,99.000 C 85.631,93.329 85.850,97.767 88.000,88.000" stroke-width="5.151" stroke="black" fill="none" stroke-linecap="round"></path><path d="M 88.000,88.000 C 89.308,83.899 89.631,84.329 92.000,81.000" stroke-width="4.693" stroke="black" fill="none" stroke-linecap="round"></path><path d="M 92.000,81.000 C 96.278,77.148 95.808,76.899 101.000,74.000" stroke-width="4.322" stroke="black" fill="none" stroke-linecap="round"></path><path d="M 101.000,74.000 C 103.956,72.405 103.778,72.148 107.000,71.000" stroke-width="4.163" stroke="black" fill="none" stroke-linecap="round"></path><path d="M 107.000,71.000 C 110.421,69.278 110.456,69.405 114.000,68.000" stroke-width="3.964" stroke="black" fill="none" stroke-linecap="round"></path><path d="M 114.000,68.000 C 118.891,64.274 117.421,66.778 121.000,66.000" stroke-width="4.394" stroke="black" fill="none" stroke-linecap="round"></path><path d="M 121.000,66.000 C 123.748,71.368 124.391,68.774 125.000,77.000" stroke-width="4.998" stroke="black" fill="none" stroke-linecap="round"></path><path d="M 125.000,77.000 C 125.602,80.588 125.748,80.368 125.000,84.000" stroke-width="4.243" stroke="black" fill="none" stroke-linecap="round"></path><path d="M 125.000,84.000 C 123.344,88.961 124.102,89.088 122.000,94.000" stroke-width="3.618" stroke="black" fill="none" stroke-linecap="round"></path><path d="M 122.000,94.000 C 121.802,96.594 121.344,96.461 121.000,99.000" stroke-width="4.048" stroke="black" fill="none" stroke-linecap="round"></path><path d="M 121.000,99.000 C 120.008,102.844 119.802,102.594 118.000,106.000" stroke-width="3.932" stroke="black" fill="none" stroke-linecap="round"></path><path d="M 118.000,106.000 C 115.723,110.246 116.508,108.344 114.000,110.000" stroke-width="4.730" stroke="black" fill="none" stroke-linecap="round"></path><path d="M 114.000,110.000 C 112.500,107.500 112.223,109.746 111.000,105.000" stroke-width="4.765" stroke="black" fill="none" stroke-linecap="round"></path><path d="M 111.000,105.000 C 109.668,102.383 109.500,102.500 108.000,100.000" stroke-width="4.346" stroke="black" fill="none" stroke-linecap="round"></path><path d="M 108.000,100.000 C 104.835,97.783 106.168,97.383 104.000,95.000" stroke-width="4.579" stroke="black" fill="none" stroke-linecap="round"></path><path d="M 104.000,95.000 C 103.964,92.278 103.335,92.783 105.000,90.000" stroke-width="5.097" stroke="black" fill="none" stroke-linecap="round"></path><path d="M 105.000,90.000 C 106.600,86.640 106.464,86.778 109.000,84.000" stroke-width="4.177" stroke="black" fill="none" stroke-linecap="round"></path><path d="M 109.000,84.000 C 112.632,79.000 111.600,81.140 115.000,79.000" stroke-width="4.430" stroke="black" fill="none" stroke-linecap="round"></path><path d="M 115.000,79.000 C 117.207,81.515 116.632,79.000 117.000,84.000" stroke-width="5.022" stroke="black" fill="none" stroke-linecap="round"></path><path d="M 117.000,84.000 C 115.701,87.598 116.707,87.515 114.000,91.000" stroke-width="4.108" stroke="black" fill="none" stroke-linecap="round"></path><path d="M 114.000,91.000 C 111.904,95.805 111.701,95.598 109.000,100.000" stroke-width="3.603" stroke="black" fill="none" stroke-linecap="round"></path><path d="M 109.000,100.000 C 107.000,102.000 107.404,102.305 105.000,104.000" stroke-width="4.014" stroke="black" fill="none" stroke-linecap="round"></path><path d="M 105.000,104.000 C 100.330,107.106 103.000,106.000 101.000,108.000" stroke-width="4.112" stroke="black" fill="none" stroke-linecap="round"></path><path d="M 101.000,108.000 C 104.676,108.831 101.830,109.106 108.000,108.000" stroke-width="4.922" stroke="black" fill="none" stroke-linecap="round"></path><path d="M 108.000,108.000 C 113.061,106.727 112.676,106.831 117.000,104.000" stroke-width="3.817" stroke="black" fill="none" stroke-linecap="round"></path><path d="M 117.000,104.000 C 120.169,101.910 119.561,102.227 121.000,99.000" stroke-width="4.402" stroke="black" fill="none" stroke-linecap="round"></path><path d="M 121.000,99.000 C 121.494,94.446 122.169,94.910 121.000,90.000" stroke-width="4.470" stroke="black" fill="none" stroke-linecap="round"></path><path d="M 121.000,90.000 C 119.966,85.507 120.494,85.446 119.000,81.000" stroke-width="3.860" stroke="black" fill="none" stroke-linecap="round"></path><path d="M 119.000,81.000 C 118.656,78.461 118.466,78.507 118.000,76.000" stroke-width="4.176" stroke="black" fill="none" stroke-linecap="round"></path><path d="M 118.000,76.000 C 116.473,71.008 116.656,70.961 115.000,66.000" stroke-width="3.604" stroke="black" fill="none" stroke-linecap="round"></path><path d="M 115.000,66.000 C 114.150,62.449 113.973,62.508 113.000,59.000" stroke-width="3.832" stroke="black" fill="none" stroke-linecap="round"></path><path d="M 113.000,59.000 C 111.000,53.263 112.150,56.449 111.000,54.000" stroke-width="4.129" stroke="black" fill="none" stroke-linecap="round"></path><path d="M 111.000,54.000 C 112.325,58.446 111.000,55.263 113.000,63.000" stroke-width="4.800" stroke="black" fill="none" stroke-linecap="round"></path><path d="M 113.000,63.000 C 114.099,71.990 114.325,71.946 115.000,81.000" stroke-width="3.051" stroke="black" fill="none" stroke-linecap="round"></path><path d="M 115.000,81.000 C 115.739,86.990 115.599,86.990 116.000,93.000" stroke-width="3.160" stroke="black" fill="none" stroke-linecap="round"></path><path d="M 116.000,93.000 C 116.239,98.510 116.239,98.490 116.000,104.000" stroke-width="3.334" stroke="black" fill="none" stroke-linecap="round"></path><path d="M 116.000,104.000 C 115.664,110.021 115.739,110.010 115.000,116.000" stroke-width="3.359" stroke="black" fill="none" stroke-linecap="round"></path><path d="M 115.000,116.000 C 115.591,119.878 114.664,119.021 114.000,122.000" stroke-width="3.831" stroke="black" fill="none" stroke-linecap="round"></path><path d="M 114.000,122.000 C 111.629,123.671 112.591,123.878 109.000,124.000" stroke-width="4.881" stroke="black" fill="none" stroke-linecap="round"></path><path d="M 109.000,124.000 C 99.213,126.427 103.629,124.671 98.000,124.000" stroke-width="4.689" stroke="black" fill="none" stroke-linecap="round"></path><path d="M 98.000,124.000 C 100.068,117.932 96.713,121.427 104.000,114.000" stroke-width="4.941" stroke="black" fill="none" stroke-linecap="round"></path><path d="M 104.000,114.000 C 107.465,112.414 106.568,111.432 111.000,111.000" stroke-width="4.092" stroke="black" fill="none" stroke-linecap="round"></path><path d="M 111.000,111.000 C 118.611,106.249 114.965,109.414 119.000,108.000" stroke-width="3.842" stroke="black" fill="none" stroke-linecap="round"></path><path d="M 119.000,108.000 C 116.476,114.312 119.611,110.749 113.000,120.000" stroke-width="4.554" stroke="black" fill="none" stroke-linecap="round"></path><path d="M 113.000,120.000 C 110.755,123.245 110.976,123.312 108.000,126.000" stroke-width="3.983" stroke="black" fill="none" stroke-linecap="round"></path><path d="M 108.000,126.000 C 102.572,131.083 102.755,131.245 97.000,136.000" stroke-width="3.171" stroke="black" fill="none" stroke-linecap="round"></path><path d="M 97.000,136.000 C 91.807,141.269 94.072,138.583 91.000,141.000" stroke-width="3.620" stroke="black" fill="none" stroke-linecap="round"></path><path d="M 91.000,141.000 C 91.729,137.271 90.307,140.769 94.000,135.000" stroke-width="4.613" stroke="black" fill="none" stroke-linecap="round"></path><path d="M 94.000,135.000 C 97.205,132.265 96.729,132.271 101.000,131.000" stroke-width="4.024" stroke="black" fill="none" stroke-linecap="round"></path><path d="M 101.000,131.000 C 110.900,127.964 110.705,127.765 121.000,126.000" stroke-width="2.858" stroke="black" fill="none" stroke-linecap="round"></path><path d="M 121.000,126.000 C 128.972,124.554 128.900,124.464 137.000,124.000" stroke-width="2.878" stroke="black" fill="none" stroke-linecap="round"></path><path d="M 137.000,124.000 C 143.500,124.000 143.472,123.554 150.000,124.000" stroke-width="3.032" stroke="black" fill="none" stroke-linecap="round"></path><path d="M 173.000,59.000 C 176.972,60.712 177.000,60.000 181.000,61.000" stroke-width="5.073" stroke="black" fill="none" stroke-linecap="round"></path><path d="M 181.000,61.000 C 184.166,61.012 183.972,61.212 187.000,60.000" stroke-width="5.131" stroke="black" fill="none" stroke-linecap="round"></path><path d="M 187.000,60.000 C 193.846,54.616 191.166,58.512 195.000,56.000" stroke-width="4.616" stroke="black" fill="none" stroke-linecap="round"></path><path d="M 195.000,56.000 C 193.649,61.052 196.346,57.616 192.000,66.000" stroke-width="5.141" stroke="black" fill="none" stroke-linecap="round"></path><path d="M 192.000,66.000 C 191.000,68.500 191.149,68.552 190.000,71.000" stroke-width="4.451" stroke="black" fill="none" stroke-linecap="round"></path><path d="M 190.000,71.000 C 187.368,73.631 189.000,73.500 188.000,76.000" stroke-width="4.699" stroke="black" fill="none" stroke-linecap="round"></path><path d="M 188.000,76.000 C 191.505,80.760 189.368,81.131 194.000,86.000" stroke-width="5.095" stroke="black" fill="none" stroke-linecap="round"></path><path d="M 194.000,86.000 C 196.259,91.428 196.505,91.260 198.000,97.000" stroke-width="4.396" stroke="black" fill="none" stroke-linecap="round"></path><path d="M 198.000,97.000 C 198.500,99.500 198.759,99.428 199.000,102.000" stroke-width="4.304" stroke="black" fill="none" stroke-linecap="round"></path><path d="M 199.000,102.000 C 199.500,104.500 199.500,104.500 200.000,107.000" stroke-width="4.320" stroke="black" fill="none" stroke-linecap="round"></path><path d="M 200.000,107.000 C 202.000,111.000 200.500,109.500 201.000,112.000" stroke-width="4.665" stroke="black" fill="none" stroke-linecap="round"></path><path d="M 201.000,112.000 C 198.040,112.360 200.000,113.000 196.000,111.000" stroke-width="5.213" stroke="black" fill="none" stroke-linecap="round"></path><path d="M 196.000,111.000 C 192.791,107.159 192.040,108.360 189.000,104.000" stroke-width="4.828" stroke="black" fill="none" stroke-linecap="round"></path><path d="M 189.000,104.000 C 183.651,99.767 183.791,99.659 178.000,96.000" stroke-width="4.231" stroke="black" fill="none" stroke-linecap="round"></path><path d="M 178.000,96.000 C 174.750,93.250 174.651,93.767 171.000,92.000" stroke-width="3.875" stroke="black" fill="none" stroke-linecap="round"></path><path d="M 151.000,95.000 C 154.028,96.212 154.000,95.500 157.000,96.000" stroke-width="5.199" stroke="black" fill="none" stroke-linecap="round"></path><path d="M 157.000,96.000 C 161.071,95.228 161.028,95.712 165.000,94.000" stroke-width="5.149" stroke="black" fill="none" stroke-linecap="round"></path><path d="M 165.000,94.000 C 168.966,92.403 169.071,92.728 173.000,91.000" stroke-width="4.077" stroke="black" fill="none" stroke-linecap="round"></path><path d="M 173.000,91.000 C 180.391,88.099 180.466,88.403 188.000,86.000" stroke-width="3.115" stroke="black" fill="none" stroke-linecap="round"></path><path d="M 188.000,86.000 C 195.029,84.626 194.891,84.099 202.000,83.000" stroke-width="3.011" stroke="black" fill="none" stroke-linecap="round"></path><path d="M 202.000,83.000 C 209.963,80.837 210.029,81.126 218.000,79.000" stroke-width="2.900" stroke="black" fill="none" stroke-linecap="round"></path><path d="M 218.000,79.000 C 227.461,76.767 227.463,76.837 237.000,75.000" stroke-width="2.703" stroke="black" fill="none" stroke-linecap="round"></path><path d="M 243.000,26.000 C 246.442,26.953 246.000,27.500 249.000,29.000" stroke-width="5.373" stroke="black" fill="none" stroke-linecap="round"></path><path d="M 224.000,59.000 C 228.285,62.286 228.000,60.500 232.000,62.000" stroke-width="5.115" stroke="black" fill="none" stroke-linecap="round"></path><path d="M 232.000,62.000 C 235.047,60.442 234.785,61.786 237.000,58.000" stroke-width="5.204" stroke="black" fill="none" stroke-linecap="round"></path><path d="M 237.000,58.000 C 238.209,54.814 239.047,55.442 240.000,52.000" stroke-width="4.269" stroke="black" fill="none" stroke-linecap="round"></path><path d="M 240.000,52.000 C 241.750,49.250 241.709,49.314 244.000,47.000" stroke-width="4.090" stroke="black" fill="none" stroke-linecap="round"></path><path d="M 244.000,47.000 C 246.383,44.832 246.250,44.750 249.000,43.000" stroke-width="4.490" stroke="black" fill="none" stroke-linecap="round"></path><path d="M 249.000,43.000 C 252.768,39.261 251.383,41.332 254.000,40.000" stroke-width="5.150" stroke="black" fill="none" stroke-linecap="round"></path><path d="M 254.000,40.000 C 254.176,43.008 255.268,40.761 254.000,46.000" stroke-width="5.384" stroke="black" fill="none" stroke-linecap="round"></path><path d="M 254.000,46.000 C 253.954,51.595 253.676,51.508 253.000,57.000" stroke-width="4.533" stroke="black" fill="none" stroke-linecap="round"></path><path d="M 253.000,57.000 C 251.908,59.972 252.454,60.095 251.000,63.000" stroke-width="4.221" stroke="black" fill="none" stroke-linecap="round"></path><path d="M 251.000,63.000 C 249.299,70.102 248.908,69.972 247.000,77.000" stroke-width="3.239" stroke="black" fill="none" stroke-linecap="round"></path><path d="M 247.000,77.000 C 245.226,82.102 245.299,82.102 243.000,87.000" stroke-width="3.324" stroke="black" fill="none" stroke-linecap="round"></path><path d="M 243.000,87.000 C 239.414,92.763 240.226,93.102 237.000,99.000" stroke-width="3.196" stroke="black" fill="none" stroke-linecap="round"></path><path d="M 237.000,99.000 C 234.150,108.551 233.414,108.263 231.000,118.000" stroke-width="2.679" stroke="black" fill="none" stroke-linecap="round"></path><path d="M 231.000,118.000 C 229.055,123.521 229.150,123.551 227.000,129.000" stroke-width="3.105" stroke="black" fill="none" stroke-linecap="round"></path><path d="M 227.000,129.000 C 225.435,134.435 226.055,131.521 225.000,134.000" stroke-width="3.839" stroke="black" fill="none" stroke-linecap="round"></path><path d="M 225.000,134.000 C 223.777,130.144 224.435,133.435 225.000,127.000" stroke-width="4.732" stroke="black" fill="none" stroke-linecap="round"></path><path d="M 241.000,82.000 C 243.892,78.259 244.000,80.000 247.000,78.000" stroke-width="5.058" stroke="black" fill="none" stroke-linecap="round"></path><path d="M 247.000,78.000 C 251.011,78.727 249.892,77.759 253.000,81.000" stroke-width="5.086" stroke="black" fill="none" stroke-linecap="round"></path><path d="M 253.000,81.000 C 253.344,83.539 254.511,82.727 254.000,86.000" stroke-width="4.530" stroke="black" fill="none" stroke-linecap="round"></path><path d="M 254.000,86.000 C 255.871,90.922 255.344,91.039 257.000,96.000" stroke-width="3.678" stroke="black" fill="none" stroke-linecap="round"></path><path d="M 257.000,96.000 C 257.467,100.004 257.871,99.922 258.000,104.000" stroke-width="3.773" stroke="black" fill="none" stroke-linecap="round"></path><path d="M 258.000,104.000 C 259.000,110.419 258.467,107.504 259.000,111.000" stroke-width="3.862" stroke="black" fill="none" stroke-linecap="round"></path><path d="M 259.000,111.000 C 258.141,108.536 259.000,111.419 258.000,106.000" stroke-width="4.870" stroke="black" fill="none" stroke-linecap="round"></path><path d="M 258.000,106.000 C 258.000,99.500 257.641,99.536 258.000,93.000" stroke-width="4.757" stroke="black" fill="none" stroke-linecap="round"></path><path d="M 258.000,93.000 C 258.000,88.000 258.000,88.000 258.000,83.000" stroke-width="4.440" stroke="black" fill="none" stroke-linecap="round"></path><path d="M 258.000,83.000 C 256.424,78.364 258.000,79.500 258.000,76.000" stroke-width="4.579" stroke="black" fill="none" stroke-linecap="round"></path><path d="M 258.000,76.000 C 262.576,76.136 259.424,73.864 264.000,74.000" stroke-width="5.030" stroke="black" fill="none" stroke-linecap="round"></path><path d="M 262.000,42.000 C 264.778,44.536 265.000,44.000 268.000,46.000" stroke-width="5.252" stroke="black" fill="none" stroke-linecap="round"></path><path d="M 268.000,46.000 C 271.139,48.116 270.278,47.036 273.000,47.000" stroke-width="5.148" stroke="black" fill="none" stroke-linecap="round"></path><path d="M 273.000,47.000 C 275.134,43.153 276.139,45.116 278.000,40.000" stroke-width="4.626" stroke="black" fill="none" stroke-linecap="round"></path><path d="M 278.000,40.000 C 280.624,38.138 280.134,37.653 283.000,36.000" stroke-width="4.182" stroke="black" fill="none" stroke-linecap="round"></path><path d="M 283.000,36.000 C 285.500,33.500 285.624,33.638 288.000,31.000" stroke-width="3.981" stroke="black" fill="none" stroke-linecap="round"></path><path d="M 288.000,31.000 C 290.293,28.256 290.500,28.500 293.000,26.000" stroke-width="3.925" stroke="black" fill="none" stroke-linecap="round"></path><path d="M 293.000,26.000 C 299.385,23.153 296.293,23.256 300.000,21.000" stroke-width="3.790" stroke="black" fill="none" stroke-linecap="round"></path><path d="M 300.000,21.000 C 297.449,20.113 300.385,19.653 295.000,19.000" stroke-width="4.835" stroke="black" fill="none" stroke-linecap="round"></path><path d="M 285.000,10.000 C 289.011,10.727 288.000,11.500 291.000,13.000" stroke-width="5.327" stroke="black" fill="none" stroke-linecap="round"></path><path d="M 291.000,13.000 C 292.401,15.594 292.511,14.727 292.000,18.000" stroke-width="5.297" stroke="black" fill="none" stroke-linecap="round"></path><path d="M 292.000,18.000 C 290.366,21.449 291.401,21.594 289.000,25.000" stroke-width="4.222" stroke="black" fill="none" stroke-linecap="round"></path><path d="M 289.000,25.000 C 288.301,28.138 287.866,27.949 287.000,31.000" stroke-width="4.136" stroke="black" fill="none" stroke-linecap="round"></path><path d="M 287.000,31.000 C 285.381,33.435 285.801,33.638 284.000,36.000" stroke-width="4.172" stroke="black" fill="none" stroke-linecap="round"></path><path d="M 284.000,36.000 C 282.000,40.000 281.881,39.935 280.000,44.000" stroke-width="3.761" stroke="black" fill="none" stroke-linecap="round"></path><path d="M 280.000,44.000 C 277.000,47.058 278.500,47.000 277.000,50.000" stroke-width="4.357" stroke="black" fill="none" stroke-linecap="round"></path><path d="M 277.000,50.000 C 279.039,52.277 277.000,52.558 280.000,55.000" stroke-width="5.011" stroke="black" fill="none" stroke-linecap="round"></path><path d="M 280.000,55.000 C 281.897,60.931 282.039,60.777 283.000,67.000" stroke-width="3.565" stroke="black" fill="none" stroke-linecap="round"></path><path d="M 283.000,67.000 C 283.736,71.988 283.897,71.931 284.000,77.000" stroke-width="3.544" stroke="black" fill="none" stroke-linecap="round"></path><path d="M 284.000,77.000 C 283.506,81.554 284.236,81.488 284.000,86.000" stroke-width="3.637" stroke="black" fill="none" stroke-linecap="round"></path><path d="M 284.000,86.000 C 285.151,90.472 284.506,90.554 286.000,95.000" stroke-width="3.589" stroke="black" fill="none" stroke-linecap="round"></path><path d="M 286.000,95.000 C 287.701,102.000 286.651,98.472 287.000,102.000" stroke-width="4.246" stroke="black" fill="none" stroke-linecap="round"></path><path d="M 287.000,102.000 C 284.531,98.675 286.201,102.000 283.000,95.000" stroke-width="4.848" stroke="black" fill="none" stroke-linecap="round"></path><path d="M 283.000,95.000 C 282.195,92.530 282.031,92.675 282.000,90.000" stroke-width="4.425" stroke="black" fill="none" stroke-linecap="round"></path><path d="M 282.000,90.000 C 282.000,86.000 281.695,86.030 282.000,82.000" stroke-width="3.987" stroke="black" fill="none" stroke-linecap="round"></path><path d="M 282.000,82.000 C 282.000,78.500 282.000,78.500 282.000,75.000" stroke-width="3.935" stroke="black" fill="none" stroke-linecap="round"></path><path d="M 282.000,75.000 C 281.751,70.486 282.000,70.500 282.000,66.000" stroke-width="3.751" stroke="black" fill="none" stroke-linecap="round"></path><path d="M 282.000,66.000 C 281.644,61.262 282.251,61.486 283.000,57.000" stroke-width="4.209" stroke="black" fill="none" stroke-linecap="round"></path><path d="M 283.000,57.000 C 286.182,50.576 285.144,50.262 289.000,44.000" stroke-width="4.030" stroke="black" fill="none" stroke-linecap="round"></path><path d="M 289.000,44.000 C 290.199,39.859 290.682,40.076 292.000,36.000" stroke-width="3.825" stroke="black" fill="none" stroke-linecap="round"></path><path d="M 292.000,36.000 C 293.722,28.586 293.699,32.359 296.000,29.000" stroke-width="4.269" stroke="black" fill="none" stroke-linecap="round"></path><path d="M 296.000,29.000 C 300.392,33.109 299.222,29.586 303.000,38.000" stroke-width="4.827" stroke="black" fill="none" stroke-linecap="round"></path><path d="M 303.000,38.000 C 303.341,41.033 304.392,40.609 304.000,44.000" stroke-width="4.275" stroke="black" fill="none" stroke-linecap="round"></path><path d="M 304.000,44.000 C 305.943,49.925 305.341,50.033 307.000,56.000" stroke-width="3.507" stroke="black" fill="none" stroke-linecap="round"></path><path d="M 307.000,56.000 C 307.412,61.509 307.943,61.425 308.000,67.000" stroke-width="3.438" stroke="black" fill="none" stroke-linecap="round"></path><path d="M 308.000,67.000 C 309.345,75.480 308.912,75.509 310.000,84.000" stroke-width="2.900" stroke="black" fill="none" stroke-linecap="round"></path><path d="M 310.000,84.000 C 311.461,91.539 310.345,88.480 310.000,93.000" stroke-width="3.357" stroke="black" fill="none" stroke-linecap="round"></path><path d="M 310.000,93.000 C 306.426,91.614 308.961,94.039 305.000,89.000" stroke-width="4.550" stroke="black" fill="none" stroke-linecap="round"></path><path d="M 305.000,89.000 C 305.096,85.288 303.426,86.114 304.000,82.000" stroke-width="4.904" stroke="black" fill="none" stroke-linecap="round"></path><path d="M 304.000,82.000 C 303.079,78.820 303.096,79.288 301.000,77.000" stroke-width="4.817" stroke="black" fill="none" stroke-linecap="round"></path><path d="M 301.000,77.000 C 298.195,76.463 299.079,75.320 296.000,75.000" stroke-width="4.997" stroke="black" fill="none" stroke-linecap="round"></path><path d="M 286.000,51.000 C 289.322,49.947 289.000,49.500 292.000,48.000" stroke-width="5.352" stroke="black" fill="none" stroke-linecap="round"></path><path d="M 292.000,48.000 C 296.123,42.123 294.822,45.947 297.000,43.000" stroke-width="4.808" stroke="black" fill="none" stroke-linecap="round"></path><path d="M 297.000,43.000 C 297.029,47.627 298.123,44.123 296.000,52.000" stroke-width="5.023" stroke="black" fill="none" stroke-linecap="round"></path><path d="M 296.000,52.000 C 294.533,56.013 295.029,56.127 293.000,60.000" stroke-width="4.053" stroke="black" fill="none" stroke-linecap="round"></path><path d="M 293.000,60.000 C 292.113,62.551 292.033,62.513 291.000,65.000" stroke-width="4.161" stroke="black" fill="none" stroke-linecap="round"></path><path d="M 291.000,65.000 C 289.287,67.912 289.613,68.051 288.000,71.000" stroke-width="4.021" stroke="black" fill="none" stroke-linecap="round"></path><path d="M 288.000,71.000 C 285.533,77.000 286.787,73.912 286.000,77.000" stroke-width="4.076" stroke="black" fill="none" stroke-linecap="round"></path><path d="M 286.000,77.000 C 287.424,72.145 286.533,77.000 290.000,71.000" stroke-width="4.844" stroke="black" fill="none" stroke-linecap="round"></path><path d="M 290.000,71.000 C 293.913,71.043 291.924,70.145 295.000,73.000" stroke-width="5.240" stroke="black" fill="none" stroke-linecap="round"></path><path d="M 295.000,73.000 C 295.818,76.727 296.413,75.543 295.000,80.000" stroke-width="4.806" stroke="black" fill="none" stroke-linecap="round"></path><path d="M 295.000,80.000 C 294.000,83.000 294.318,82.727 292.000,85.000" stroke-width="5.242" stroke="black" fill="none" stroke-linecap="round"></path><path d="M 292.000,85.000 C 289.565,86.619 290.000,87.000 287.000,88.000" stroke-width="4.910" stroke="black" fill="none" stroke-linecap="round"></path><path d="M 287.000,88.000 C 283.083,90.185 283.065,90.119 279.000,92.000" stroke-width="3.984" stroke="black" fill="none" stroke-linecap="round"></path><path d="M 279.000,92.000 C 274.015,94.038 274.083,94.185 269.000,96.000" stroke-width="3.527" stroke="black" fill="none" stroke-linecap="round"></path><path d="M 247.000,109.000 C 249.976,109.784 250.000,109.500 253.000,110.000" stroke-width="5.221" stroke="black" fill="none" stroke-linecap="round"></path><path d="M 253.000,110.000 C 257.104,110.779 256.976,110.284 261.000,110.000" stroke-width="5.119" stroke="black" fill="none" stroke-linecap="round"></path><path d="M 261.000,110.000 C 272.000,107.000 272.104,107.779 283.000,104.000" stroke-width="2.857" stroke="black" fill="none" stroke-linecap="round"></path><path d="M 283.000,104.000 C 294.053,101.185 294.000,101.000 305.000,98.000" stroke-width="2.523" stroke="black" fill="none" stroke-linecap="round"></path><path d="M 305.000,98.000 C 321.748,93.653 321.553,93.185 338.000,88.000" stroke-width="1.955" stroke="black" fill="none" stroke-linecap="round"></path><path d="M 338.000,88.000 C 344.371,84.652 344.748,85.653 351.000,82.000" stroke-width="2.613" stroke="black" fill="none" stroke-linecap="round"></path><path d="M 351.000,82.000 C 357.728,80.817 354.371,80.652 358.000,80.000" stroke-width="3.380" stroke="black" fill="none" stroke-linecap="round"></path><path d="M 358.000,80.000 C 354.795,78.355 358.228,79.317 352.000,79.000" stroke-width="4.553" stroke="black" fill="none" stroke-linecap="round"></path><path d="M 352.000,79.000 C 348.561,81.115 348.295,79.855 345.000,83.000" stroke-width="3.952" stroke="black" fill="none" stroke-linecap="round"></path><path d="M 345.000,83.000 C 340.056,85.621 340.061,85.615 335.000,88.000" stroke-width="3.544" stroke="black" fill="none" stroke-linecap="round"></path><path d="M 279.000,104.000 C 282.702,103.468 282.000,104.500 285.000,105.000" stroke-width="5.341" stroke="black" fill="none" stroke-linecap="round"></path><path d="M 285.000,105.000 C 287.261,107.289 287.202,106.468 288.000,110.000" stroke-width="5.475" stroke="black" fill="none" stroke-linecap="round"></path><path d="M 306.000,103.000 C 309.851,102.688 309.500,103.500 313.000,104.000" stroke-width="5.362" stroke="black" fill="none" stroke-linecap="round"></path><path d="M 313.000,104.000 C 315.884,105.648 315.851,105.188 318.000,108.000" stroke-width="4.871" stroke="black" fill="none" stroke-linecap="round"></path><path d="M 318.000,108.000 C 320.065,110.959 320.384,110.648 322.000,114.000" stroke-width="4.130" stroke="black" fill="none" stroke-linecap="round"></path><path d="M 322.000,114.000 C 323.223,116.716 323.565,116.459 325.000,119.000" stroke-width="4.565" stroke="black" fill="none" stroke-linecap="round"></path></svg>